<svg width="67" height="19" viewBox="0 0 67 19" fill="none" xmlns="http://www.w3.org/2000/svg">
<path d="M0.523438 18V0.9375H6.5C8.57031 0.9375 10.1406 1.33594 11.2109 2.13281C12.2812 2.92188 12.8164 4.08203 12.8164 5.61328C12.8164 6.44922 12.6016 7.1875 12.1719 7.82812C11.7422 8.46094 11.1445 8.92578 10.3789 9.22266C11.2539 9.44141 11.9414 9.88281 12.4414 10.5469C12.9492 11.2109 13.2031 12.0234 13.2031 12.9844C13.2031 14.625 12.6797 15.8672 11.6328 16.7109C10.5859 17.5547 9.09375 17.9844 7.15625 18H0.523438ZM4.03906 10.5703V15.1758H7.05078C7.87891 15.1758 8.52344 14.9805 8.98438 14.5898C9.45312 14.1914 9.6875 13.6445 9.6875 12.9492C9.6875 11.3867 8.87891 10.5938 7.26172 10.5703H4.03906ZM4.03906 8.08594H6.64062C8.41406 8.05469 9.30078 7.34766 9.30078 5.96484C9.30078 5.19141 9.07422 4.63672 8.62109 4.30078C8.17578 3.95703 7.46875 3.78516 6.5 3.78516H4.03906V8.08594ZM25.4844 14.4844H19.3203L18.1484 18H14.4102L20.7617 0.9375H24.0195L30.4062 18H26.668L25.4844 14.4844ZM20.2695 11.6367H24.5352L22.3906 5.25L20.2695 11.6367ZM35.7383 18H32.2227V0.9375H35.7383V18ZM45.3242 11.7539H42.5234V18H39.0078V0.9375H45.3477C47.3633 0.9375 48.918 1.38672 50.0117 2.28516C51.1055 3.18359 51.6523 4.45312 51.6523 6.09375C51.6523 7.25781 51.3984 8.23047 50.8906 9.01172C50.3906 9.78516 49.6289 10.4023 48.6055 10.8633L52.2969 17.8359V18H48.5234L45.3242 11.7539ZM42.5234 8.90625H45.3594C46.2422 8.90625 46.9258 8.68359 47.4102 8.23828C47.8945 7.78516 48.1367 7.16406 48.1367 6.375C48.1367 5.57031 47.9062 4.9375 47.4453 4.47656C46.9922 4.01562 46.293 3.78516 45.3477 3.78516H42.5234V8.90625ZM63.1836 13.5234C63.1836 12.8594 62.9492 12.3516 62.4805 12C62.0117 11.6406 61.168 11.2656 59.9492 10.875C58.7305 10.4766 57.7656 10.0859 57.0547 9.70312C55.1172 8.65625 54.1484 7.24609 54.1484 5.47266C54.1484 4.55078 54.4062 3.73047 54.9219 3.01172C55.4453 2.28516 56.1914 1.71875 57.1602 1.3125C58.1367 0.90625 59.2305 0.703125 60.4414 0.703125C61.6602 0.703125 62.7461 0.925781 63.6992 1.37109C64.6523 1.80859 65.3906 2.42969 65.9141 3.23438C66.4453 4.03906 66.7109 4.95312 66.7109 5.97656H63.1953C63.1953 5.19531 62.9492 4.58984 62.457 4.16016C61.9648 3.72266 61.2734 3.50391 60.3828 3.50391C59.5234 3.50391 58.8555 3.6875 58.3789 4.05469C57.9023 4.41406 57.6641 4.89062 57.6641 5.48438C57.6641 6.03906 57.9414 6.50391 58.4961 6.87891C59.0586 7.25391 59.8828 7.60547 60.9688 7.93359C62.9688 8.53516 64.4258 9.28125 65.3398 10.1719C66.2539 11.0625 66.7109 12.1719 66.7109 13.5C66.7109 14.9766 66.1523 16.1367 65.0352 16.9805C63.918 17.8164 62.4141 18.2344 60.5234 18.2344C59.2109 18.2344 58.0156 17.9961 56.9375 17.5195C55.8594 17.0352 55.0352 16.375 54.4648 15.5391C53.9023 14.7031 53.6211 13.7344 53.6211 12.6328H57.1484C57.1484 14.5156 58.2734 15.457 60.5234 15.457C61.3594 15.457 62.0117 15.2891 62.4805 14.9531C62.9492 14.6094 63.1836 14.1328 63.1836 13.5234Z" fill="#6B4100"/>
</svg>
