<svg width="1440" height="1330" viewBox="0 0 1440 1330" fill="none" xmlns="http://www.w3.org/2000/svg">
<path d="M1024.27 1363.49C1160.44 1320.18 1428.61 1178.63 1485.73 943.357C1500.07 813.888 1507.5 753.726 1494.92 888.443C1493.16 907.281 1490.05 925.587 1485.73 943.357C1471.52 1071.68 1450.52 1268.1 1435.46 1410.34L1024.27 1363.49Z" fill="#FF7A00"/>
<path d="M-26 754.637C73.1254 951.486 354.337 1325.61 727.774 1355.78C929.14 1346.35 1022.89 1343.13 813.933 1356.5C784.713 1358.37 755.981 1358.06 727.774 1355.78C528.186 1365.12 222.876 1380.55 1.82619 1391.96L-26 754.637Z" fill="#FF7A00"/>
<path d="M156.626 -0.499962C57.2974 5.10108 10.3015 126.967 -1 190L-16.5 -0.499962H156.626C161.301 -0.763564 166.092 -0.769648 171 -0.499962H156.626Z" fill="#FF7A00"/>
<path d="M-1 190C10.8333 124 61.8 -6.49996 171 -0.499962C33.4 -0.499962 -11.3333 -0.499962 -16.5 -0.499962L-1 190Z" stroke="#FF7A00"/>
<path d="M1506.5 463C1456.5 226.6 1093.33 41.5 918 -21.5L1506.5 -34C1514.17 16.6667 1524.9 187 1506.5 463Z" fill="#FF7A00" stroke="#FF7A00"/>
<path d="M21 547.5C43.8 519.1 -19.5 442.667 -54 408V605.5C-38.5 598 -1.8 575.9 21 547.5Z" fill="#FF7A00" stroke="#FF7A00"/>
</svg>
