<svg width="531" height="350" viewBox="0 0 531 350" fill="none" xmlns="http://www.w3.org/2000/svg">
<g clip-path="url(#clip0)">
<path opacity="0.1" d="M492.415 287.196C490.757 288.656 489.063 290.076 487.332 291.453C487.04 291.689 486.74 291.916 486.444 292.157C480.269 296.959 473.786 301.35 467.036 305.3L465.775 306.037C465.47 306.222 465.17 306.393 464.851 306.565C457.799 310.646 450.484 314.403 443.082 317.961L443.003 318.003L442.444 318.267C436.474 321.136 430.414 323.882 424.265 326.504L424.117 326.559C421.345 327.73 418.572 328.869 415.8 329.978C414.668 330.441 413.531 330.872 412.394 331.312C410.255 332.132 408.11 332.938 405.948 333.712L405.68 333.814L405.218 333.976L404.64 334.189C398.999 336.209 393.283 338.074 387.492 339.785L387.39 339.813C383.352 340.993 379.287 342.085 375.196 343.088L374.636 343.227C368.629 344.682 362.525 345.933 356.384 346.933L354.97 347.16C350.478 347.868 345.956 348.445 341.403 348.893C315.807 351.372 289.907 349.356 264.469 345.9C213.103 338.914 162.416 325.818 116.188 305.291C107.316 301.353 98.6161 297.137 90.089 292.644C90.0196 292.607 89.9596 292.57 89.8903 292.537C84.7857 289.847 79.7504 287.044 74.7844 284.129C73.3289 283.286 71.8825 282.424 70.4454 281.558C68.6771 280.489 66.9165 279.408 65.1637 278.315C62.8532 276.87 60.5427 275.387 58.2323 273.872L57.151 273.15L56.7351 272.867C56.1482 272.473 55.5706 272.079 54.9884 271.681C33.27 256.857 13.9037 238.891 4.75429 216.409C-5.81839 190.466 0.946649 157.575 27.1334 142.241C36.135 136.959 46.5968 134.092 57.1695 131.725L58.2508 131.484C60.0391 131.09 61.8274 130.71 63.6064 130.33C69.84 129.005 76.106 127.69 82.3119 126.221C85.5466 125.457 88.7489 124.655 91.9327 123.789L93.2358 123.427C100.914 121.362 108.424 118.711 115.698 115.496H115.744C116.525 115.149 117.297 114.788 118.055 114.417C118.545 114.185 119.034 113.954 119.524 113.699C127.38 109.78 135.698 104.346 142.098 97.8692C142.61 97.3504 143.109 96.8223 143.595 96.2942C143.969 95.8819 144.339 95.4649 144.694 95.048C149.181 89.8038 152.287 83.9806 152.878 77.8007C153.077 75.724 152.984 73.6296 152.601 71.5791C151.875 67.6923 151.173 63.8889 150.655 60.1782C149.69 53.206 149.362 46.5397 150.702 40.1142C152.065 33.5637 155.156 27.2587 161.057 21.1436C161.947 20.2171 162.907 19.2905 163.936 18.364C168.708 14.1666 174.108 10.7463 179.938 8.22781C180.659 7.91896 181.385 7.61012 182.115 7.30128C198.325 0.722941 217.802 -0.648317 235.999 0.259679C253 1.13681 269.893 3.49287 286.488 7.30128C287.805 7.59777 289.122 7.90815 290.429 8.22781C304.545 11.656 318.435 15.9619 332.018 21.1204C367.312 34.43 400.625 52.9095 431.746 73.3024C432.051 73.5016 432.356 73.7008 432.671 73.9046C433.971 74.754 435.263 75.6064 436.548 76.4619C439.034 78.1142 441.498 79.7773 443.941 81.4512L445.591 82.5769C446.404 83.1329 447.213 83.6903 448.017 84.2493L450.494 85.968C450.61 86.0383 450.721 86.1173 450.826 86.2043L452.933 87.6682C454.153 88.5206 455.364 89.3776 456.579 90.2393L459.186 92.0924C459.726 92.4815 460.271 92.866 460.812 93.2598L463.585 95.2889L464.204 95.7521C464.333 95.8448 464.463 95.9374 464.587 96.0394L464.666 96.0903C472.18 101.617 479.513 107.348 486.384 113.421L487.272 114.209L487.364 114.292C488.113 114.959 488.861 115.635 489.596 116.316C498.57 124.507 506.61 133.309 513.181 143.037C543.365 187.974 534.405 250.195 492.415 287.196Z" fill="#FF7A00"/>
<path d="M375.016 163.884C375.016 163.884 377.705 149.755 386.346 149.68L392.668 162.717L388.417 165.612C388.417 165.612 379.286 165.904 375.016 163.884Z" fill="#65617D"/>
<path opacity="0.1" d="M392.649 162.698L388.417 165.612C388.417 165.612 381.975 165.816 377.373 164.685C376.563 164.497 375.773 164.228 375.016 163.884C375.016 163.884 375.016 163.805 375.062 163.657C375.06 163.638 375.06 163.62 375.062 163.601C375.46 161.829 376.007 160.093 376.698 158.413C376.961 157.778 377.266 157.125 377.59 156.472C378.856 154.03 380.635 151.635 383.07 150.449C383.97 150.007 384.949 149.75 385.949 149.694H386.208H386.333L386.476 149.981L388.611 154.387L392.649 162.698Z" fill="black"/>
<path d="M464.422 221.398C464.422 221.398 473.502 220.527 474.301 221.18C475.101 221.834 480.258 225.188 483.312 223.075C486.366 220.963 484.329 213.606 484.329 213.314C484.329 213.022 484.038 202.608 484.038 202.608L478.589 195.252L471.76 182.364L457.814 180.974L458.174 201.441L458.105 211.929L464.422 221.398Z" fill="#65617D"/>
<path opacity="0.1" d="M464.422 221.398C464.422 221.398 473.502 220.527 474.301 221.18C475.101 221.834 480.258 225.188 483.312 223.075C486.366 220.963 484.329 213.606 484.329 213.314C484.329 213.022 484.038 202.608 484.038 202.608L478.589 195.252L471.76 182.364L457.814 180.974L458.174 201.441L458.105 211.929L464.422 221.398Z" fill="black"/>
<path d="M384.512 149.3C384.512 149.3 383.796 158.186 378.251 158.325C378.251 158.325 376.689 157.398 374.582 155.8C369.73 152.163 362.036 145.168 364.161 138.659C367.211 129.338 382.031 146.535 382.031 146.535L383.172 147.813L384.512 149.3Z" fill="#A5636D"/>
<path opacity="0.1" d="M384.512 149.3C384.512 149.3 383.796 158.186 378.251 158.325C378.251 158.325 376.689 157.398 374.581 155.8L374.119 155.193C375.056 155.685 376.089 155.965 377.146 156.013C378.532 156.041 380.094 155.55 381.097 153.516C381.677 152.373 382.187 151.195 382.627 149.991C382.888 149.284 383.074 148.551 383.181 147.804L384.512 149.3Z" fill="black"/>
<path d="M382.114 165.394L380.871 163.791L376.712 158.394L374.554 155.638C375.489 156.128 376.521 156.406 377.576 156.453C378.962 156.486 380.524 155.99 381.527 153.956C382.108 152.814 382.619 151.636 383.056 150.431C383.745 148.467 383.731 147.457 383.486 147.114C383.241 146.771 385.029 148.434 385.889 149.254L385.921 149.282L386.319 149.662L386.471 149.958L388.574 154.179C388.574 154.179 388.574 154.239 388.574 154.355C388.768 155.693 389.475 164.19 382.114 165.394Z" fill="#E7EFFD"/>
<path d="M462.388 107.639L451.635 119.151C451.635 119.151 437.837 113.592 439.288 111.739C439.852 111.007 439.75 108.695 439.436 106.143C438.928 102.108 437.837 97.4613 437.837 97.4613C437.837 97.4613 461.954 93.5282 459.916 97.6096C459.177 99.0967 459.302 100.852 459.764 102.446C460.357 104.306 461.243 106.059 462.388 107.639Z" fill="#A5636D"/>
<path opacity="0.1" d="M459.916 97.5911C459.177 99.0781 458.821 99.2217 459.283 100.834C456.132 104.225 452.121 107.936 447.135 107.936C444.463 107.941 441.828 107.322 439.436 106.129C438.928 102.094 437.837 97.4475 437.837 97.4475C437.837 97.4475 461.954 93.5097 459.916 97.5911Z" fill="black"/>
<path d="M464.426 90.1603C464.426 94.7579 462.604 99.1672 459.362 102.418C456.119 105.669 451.721 107.496 447.135 107.496C442.549 107.496 438.151 105.669 434.908 102.418C431.665 99.1672 429.843 94.7579 429.843 90.1603C429.843 90.0769 429.843 89.9935 429.843 89.9101C429.943 85.3576 431.825 81.0272 435.083 77.8545C438.341 74.6818 442.713 72.9218 447.255 72.9546C451.797 72.9875 456.144 74.8106 459.356 78.0301C462.568 81.2496 464.388 85.6068 464.422 90.1603H464.426Z" fill="#A5636D"/>
<path opacity="0.1" d="M466.926 204.512C464.616 204.512 457.01 204.596 448.489 204.73H448.382L445.568 204.776H445.481C435.375 204.938 425.416 202.96 421.419 203.336C412.917 204.137 424.469 195.46 424.469 195.46C430.803 197.001 437.318 197.661 443.831 197.424L446.275 197.295C453.997 196.859 461.76 196.132 465.817 194.909C466.099 197.169 466.51 200.445 466.926 204.512Z" fill="black"/>
<path d="M466.926 204.077C464.616 204.077 457.01 204.156 448.489 204.294H448.382L445.568 204.341H445.481C435.375 204.503 425.416 202.525 421.419 202.9C412.917 203.697 424.469 195.025 424.469 195.025C430.803 196.565 437.318 197.224 443.831 196.984L446.275 196.859C453.997 196.424 461.76 195.692 465.817 194.473C466.099 196.734 466.51 200.019 466.926 204.077Z" fill="#5F5D7E"/>
<path opacity="0.1" d="M442.481 112.462L429.113 118.725L418.804 198.675C418.804 198.675 424.903 195.895 428.392 197.656C431.881 199.416 442.629 197.804 442.629 197.804C442.629 197.804 450.485 197.341 451.635 198.24C452.786 199.138 466.459 194.598 466.459 194.598C466.459 194.598 468.927 189.062 467.037 188.191C465.147 187.32 467.619 178.708 467.619 178.708L466.459 121.028L464.149 113.615L457.901 109.83L451.511 114.926L448.461 115.366L442.481 112.462Z" fill="black"/>
<path d="M442.481 111.572L429.118 117.836L418.804 197.804C418.804 197.804 424.903 195.025 428.392 196.785C431.881 198.545 442.629 196.929 442.629 196.929C442.629 196.929 450.485 196.493 451.635 197.364C452.786 198.235 466.459 193.723 466.459 193.723C466.459 193.723 468.927 188.191 467.037 187.316C465.147 186.44 467.619 177.847 467.619 177.847L466.459 120.166L464.149 112.754L457.901 108.964L451.511 114.06L448.461 114.496L442.481 111.572Z" fill="#E7EFFD"/>
<path opacity="0.1" d="M442.264 115.288C442.264 115.288 446.118 119.874 446.044 120.824C445.97 121.773 445.827 124.025 445.827 124.025L442.944 129.927C442.944 129.927 441.345 137.283 441.345 138.812C441.345 140.341 438.803 153.595 438.803 153.595L435.754 173.979L431.9 200.709L435.823 207.482L440.471 203.549L446.64 155.925L447.948 146.53C447.948 146.53 449.334 129.635 449.334 127.888C449.334 126.142 448.535 121.551 448.535 121.551C448.535 121.551 449.482 117.182 453.405 116.163C457.329 115.144 453.114 115.941 453.114 115.941L450.864 114.12L448.9 114.922C448.9 114.922 443.429 113.249 442.264 115.288Z" fill="black"/>
<path d="M441.83 114.852C441.83 114.852 445.679 119.439 445.61 120.384C445.541 121.329 445.388 123.589 445.388 123.589L442.482 129.491C442.482 129.491 440.883 136.843 440.883 138.372C440.883 139.901 438.341 153.159 438.341 153.159L435.287 173.543L431.438 200.269L435.361 207.042L440.009 203.108L446.178 155.49L447.486 146.095C447.486 146.095 448.872 129.199 448.872 127.448C448.872 125.697 448.073 121.116 448.073 121.116C448.073 121.116 448.997 116.742 452.939 115.723C456.88 114.704 452.652 115.505 452.652 115.505L450.397 113.685L448.438 114.486C448.438 114.486 442.994 112.809 441.83 114.852Z" fill="#FF7A00"/>
<path opacity="0.1" d="M439.289 107.204C439.289 107.204 438.706 107.639 438.563 110.553C438.42 113.467 436.382 120.022 436.382 120.022C436.382 120.022 443.937 114.778 447.717 115.362L439.289 107.204Z" fill="black"/>
<path d="M439.289 106.328C439.289 106.328 438.706 106.768 438.563 109.678C438.42 112.587 436.382 119.147 436.382 119.147C436.382 119.147 443.937 113.902 447.717 114.486L439.289 106.328Z" fill="#E7EFFD"/>
<path opacity="0.1" d="M459.921 104.874L448.027 115.362C448.027 115.362 458.054 121.333 459.362 122.774C460.669 124.215 461.977 108.501 461.977 108.501L459.921 104.874Z" fill="black"/>
<path d="M460.355 103.998L448.442 114.486C448.442 114.486 458.465 120.458 459.773 121.898C461.081 123.339 462.388 107.621 462.388 107.621L460.355 103.998Z" fill="#E7EFFD"/>
<path opacity="0.1" d="M439.709 107.204C439.709 107.204 438.401 106.546 437.167 108.441C435.934 110.335 433.609 111.22 433.609 111.22C433.609 111.22 420.384 113.333 419.876 115.079L413.702 115.441C413.702 115.441 411.521 115.705 411.318 120.337C411.115 124.97 409.932 125.359 409.932 125.359C409.932 125.359 407.386 129.876 407.621 132.206C407.857 134.536 405.657 135.704 405.657 135.704L414.756 159.349C414.756 159.349 415.047 169.11 413.37 172.677C411.692 176.244 408.573 192.05 408.573 192.05C408.573 192.05 409.881 191.759 409.807 192.634C409.733 193.51 408.208 203.048 408.208 203.048C408.208 203.048 407.774 206.833 407.048 208.144C406.323 209.455 406.249 216.302 406.249 216.302L405.052 221.255C405.052 221.255 407.825 227.444 412.03 226.568C416.235 225.693 423.868 209.163 423.868 209.163L428.734 191.323L432.514 173.696L433.605 161.753L435.347 135.315L437.888 117.836C437.888 117.836 440.739 108.441 439.709 107.204Z" fill="black"/>
<path d="M439.289 106.328C439.289 106.328 437.981 105.675 436.747 107.57C435.513 109.464 433.184 110.349 433.184 110.349C433.184 110.349 419.964 112.462 419.456 114.208L413.282 114.574C413.282 114.574 411.101 114.866 410.884 119.452C410.667 124.039 409.497 124.479 409.497 124.479C409.497 124.479 406.956 128.996 407.187 131.326C407.418 133.656 405.228 134.819 405.228 134.819L414.294 158.473C414.294 158.473 414.585 168.234 412.908 171.801C411.23 175.368 408.116 191.175 408.116 191.175C408.116 191.175 409.424 190.883 409.35 191.759C409.276 192.634 407.751 202.173 407.751 202.173C407.751 202.173 407.316 205.958 406.591 207.269C405.865 208.58 405.791 215.427 405.791 215.427L404.636 220.402C404.636 220.402 407.409 226.591 411.609 225.72C415.81 224.849 423.453 208.311 423.453 208.311L428.318 190.471L432.098 172.867L433.184 160.924L434.931 134.49L437.473 117.011C437.473 117.011 440.305 107.57 439.289 106.328Z" fill="#65617D"/>
<path opacity="0.1" d="M392.649 162.698L388.417 165.612C388.417 165.612 381.975 165.816 377.372 164.685L375.025 163.643L374.563 163.435L375.048 163.587C377.479 164.31 379.378 164.296 380.861 163.796C386.827 161.785 386.166 151.913 385.944 149.68C385.944 149.458 385.907 149.314 385.898 149.259C385.897 149.25 385.897 149.24 385.898 149.231L385.935 149.287C386.014 149.423 386.106 149.551 386.208 149.671C386.291 149.771 386.381 149.865 386.476 149.954L388.578 154.174C388.578 154.174 388.578 154.234 388.578 154.35L392.649 162.698Z" fill="black"/>
<path d="M407.252 134.235L405.218 134.819L404.927 138.988C404.927 138.988 402.529 138.627 401.878 141.467C401.226 144.306 400.061 145.636 400.061 145.636C400.061 145.636 396.064 148.985 395.847 151.825L393.375 153.354C393.375 153.354 387.636 152.043 386.328 149.713C386.328 149.713 388.944 168.503 374.998 163.916C374.998 163.916 390.616 170.763 391.342 171.709C392.067 172.654 396.864 175.415 401.221 173.098C405.579 170.782 406.526 167.127 406.526 167.127C406.526 167.127 410.74 161.23 410.884 160.354C411.027 159.478 414.299 158.459 414.299 158.459L420.546 143.315L407.252 134.235Z" fill="#65617D"/>
<path opacity="0.1" d="M458.248 113.611L460.355 103.998C460.355 103.998 461.279 107.13 462.245 107.857C463.211 108.584 465.369 110.261 465.369 110.261C465.369 110.261 468.493 111.721 469.579 111.721C470.665 111.721 476.556 113.249 477.282 114.037C478.007 114.824 480.914 114.255 480.914 114.255C480.914 114.255 483.312 115.056 485.419 115.566C487.526 116.075 488.543 119.573 488.104 120.953C487.929 121.642 487.93 122.363 488.108 123.051C488.286 123.739 488.634 124.37 489.121 124.887C489.994 125.762 490.428 128.593 490.428 128.593C491.498 128.942 492.387 129.701 492.9 130.705C493.626 132.308 493.409 135.801 493.409 135.801L482.587 151.089C482.587 151.089 482.73 156.986 482.295 158.297C481.861 159.608 483.82 181.896 483.82 181.896L486.071 220.203C486.071 220.203 483.095 222.751 482.439 223.043C481.782 223.335 481.131 209.497 481.131 208.987C481.131 208.478 464.352 183.786 464.352 183.786C464.352 183.786 462.097 180.145 462.097 179.343C462.097 178.542 459.99 171.19 459.99 171.19L456.806 157.018L458.248 113.611Z" fill="black"/>
<path d="M494.31 134.99C494.31 135.491 494.282 135.824 494.282 135.824L483.464 151.112C483.464 151.112 483.612 157.014 483.178 158.325C482.924 159.085 483.478 166.923 483.991 173.358C484.356 177.99 484.703 181.919 484.703 181.919L485.655 198.17L486.949 220.231C486.949 220.231 483.973 222.779 483.321 223.071C482.67 223.362 482.014 209.525 482.014 209.01C482.014 208.496 465.221 183.804 465.221 183.804C465.221 183.804 462.971 180.158 462.971 179.357C462.971 178.556 460.863 171.199 460.863 171.199L457.67 157L459.121 113.592L460.355 103.979C460.355 103.979 462.171 107.116 463.128 107.838C464.084 108.561 466.247 110.243 466.247 110.243C466.247 110.243 469.371 111.702 470.461 111.702C471.552 111.702 477.434 113.231 478.164 114.018C478.894 114.806 481.796 114.236 481.796 114.236C481.796 114.236 484.19 115.038 486.297 115.547C488.404 116.057 489.421 119.554 488.987 120.935C488.81 121.623 488.811 122.345 488.988 123.033C489.166 123.721 489.515 124.352 490.003 124.868C490.872 125.739 491.311 128.574 491.311 128.574C492.38 128.925 493.268 129.684 493.783 130.687C494.277 131.835 494.324 133.855 494.31 134.99Z" fill="#65617D"/>
<path opacity="0.1" d="M415.805 329.978C414.673 330.441 413.536 330.872 412.399 331.312C408.837 330.27 405.51 329.042 405.51 329.042C408.956 329.166 412.393 329.478 415.805 329.978Z" fill="black"/>
<path opacity="0.1" d="M450.185 291.096C450.185 291.096 458.83 293.134 459.339 294.52L450.185 291.096Z" fill="black"/>
<path opacity="0.1" d="M416.84 297.359C416.84 297.359 412.335 298.67 416.697 301.293C421.059 303.915 416.84 297.359 416.84 297.359Z" fill="black"/>
<path opacity="0.1" d="M436.816 227.351C437.324 227.351 445.245 224.729 448.003 225.896C450.762 227.064 454.182 227.059 454.182 227.059L436.816 227.351Z" fill="black"/>
<path opacity="0.1" d="M437.861 235.69L437.782 236.412L431.008 254.174C431.008 254.174 429.917 259.562 428.97 262.619C428.376 264.698 427.904 266.809 427.556 268.943L433.563 231.669L437.861 235.69Z" fill="black"/>
<path d="M448.382 204.294L445.568 204.341H445.48L443.831 196.998C444.639 196.961 445.457 196.919 446.275 196.868L448.382 204.294Z" fill="#3F3D56"/>
<path d="M482.656 195.386L480.849 196.882L474.828 201.872C474.828 201.872 458.484 210.613 453.983 202.307C450.014 194.992 468.544 189.771 473.008 188.632C473.613 188.479 473.959 188.4 473.959 188.4L482.656 195.386Z" fill="#A5636D"/>
<path opacity="0.1" d="M412.848 123.807C412.848 123.807 416.041 125.266 416.766 127.305C417.492 129.343 412.848 123.807 412.848 123.807Z" fill="black"/>
<path opacity="0.1" d="M402.963 145.659C402.963 145.659 398.315 151.339 400.191 153.535C402.067 155.731 402.963 145.659 402.963 145.659Z" fill="black"/>
<path opacity="0.1" d="M486.071 127.013C486.071 127.013 481.713 127.448 481.565 131.238L486.071 127.013Z" fill="black"/>
<path opacity="0.1" d="M445.679 186.732C446.141 186.297 456.141 171.445 458.465 172.751L445.679 186.732Z" fill="black"/>
<path opacity="0.1" d="M464.426 90.1603C464.429 93.015 463.725 95.8259 462.379 98.3415H462.25C461.155 98.1099 460.586 96.8313 459.75 96.0252C459.235 95.5346 458.58 95.2177 457.876 95.1188C457.173 95.02 456.456 95.1441 455.827 95.4739C455.19 95.855 454.672 96.4071 454.331 97.0677C453.991 97.7283 453.841 98.4712 453.9 99.2124C453.345 96.8961 453.521 94.3991 452.976 92.0643C452.43 89.7294 450.808 87.3622 448.581 87.3205C447.62 87.3205 446.502 87.6772 445.809 86.9545C445.388 86.519 445.305 85.8334 444.991 85.3053C443.396 82.7249 438.554 84.0313 436.576 85.3562C434.598 86.6812 432.302 88.7936 429.843 89.9286C429.943 85.3762 431.825 81.0457 435.083 77.873C438.341 74.7004 442.713 72.9403 447.255 72.9731C451.797 73.006 456.144 74.8292 459.356 78.0486C462.568 81.2681 464.388 85.6254 464.422 90.1788L464.426 90.1603Z" fill="black"/>
<path d="M444.995 84.8513C445.309 85.3794 445.393 86.065 445.813 86.5005C446.506 87.2186 447.624 86.848 448.586 86.8665C450.813 86.9036 452.439 89.2708 452.98 91.6057C453.521 93.9405 453.345 96.4236 453.904 98.7538C453.847 98.0133 453.997 97.2714 454.337 96.6117C454.678 95.952 455.195 95.4007 455.831 95.0199C456.46 94.6898 457.176 94.5655 457.879 94.6644C458.582 94.7633 459.236 95.0804 459.75 95.5712C460.586 96.368 461.136 97.6466 462.254 97.8875C463.373 98.1284 464.408 97.0629 464.805 95.9048C465.202 94.7466 465.17 93.4773 465.429 92.2774C465.923 90.0028 467.402 88.1405 468.201 85.9817C469.176 83.3532 469.15 80.4569 468.127 77.8468C467.582 76.457 466.774 75.2478 466.219 73.8812C465.387 71.8058 465.165 69.4663 464.149 67.4882C462.439 64.1759 458.41 62.522 455.101 63.7821C453.521 64.3797 452.148 65.5332 450.545 66.0474C448.401 66.7377 446.104 66.2188 443.881 65.9085C441.659 65.5981 439.201 65.5703 437.412 67.0342C435.356 68.7205 434.792 71.8892 432.861 73.7422C432.047 74.5205 431.04 75.0162 430.185 75.7343C429.33 76.4523 428.591 77.5225 428.688 78.6899C428.817 80.2001 430.291 81.5714 429.746 82.9658C429.55 83.3715 429.275 83.7338 428.937 84.0313C427.321 85.7335 426.117 87.7864 425.421 90.0306C429.312 91.249 433.517 86.9499 436.562 84.9347C438.563 83.5773 443.406 82.2663 444.995 84.8513Z" fill="#4C3E42"/>
<path opacity="0.1" d="M482.656 195.386L480.849 196.882C479.255 194.218 472.707 188.9 472.707 188.9L472.989 188.627C473.594 188.474 473.941 188.395 473.941 188.395L482.656 195.386Z" fill="black"/>
<path d="M484.403 192.704C484.403 192.704 483.751 194.325 483.081 195.729C482.411 197.132 481.695 198.402 481.639 197.369C481.565 195.326 473.141 188.479 473.141 188.479L474.283 187.367L475.609 186.074L484.403 192.704Z" fill="#E7EFFD"/>
<path opacity="0.1" d="M484.694 181.923L485.646 198.175C483.391 194.659 477.194 185.639 473.211 185.931L482.873 174.812C483.277 174.364 483.647 173.887 483.982 173.385C484.347 178.009 484.694 181.923 484.694 181.923Z" fill="black"/>
<path opacity="0.1" d="M484.403 192.704C484.403 192.704 483.751 194.325 483.081 195.729C480.549 192.245 477.074 188.136 474.301 187.367L475.627 186.074L484.403 192.704Z" fill="black"/>
<path d="M491.667 133.772L494.282 135.81C494.282 135.81 498.64 135.884 499.074 139.516C499.508 143.148 503.506 144.835 503.506 144.835C503.506 144.835 506.486 147.818 506.486 149.203C506.486 150.588 508.736 153.062 508.736 153.28C508.736 153.498 510.918 157.94 510.626 158.742C510.335 159.543 512.937 163.041 512.151 164.352C511.495 165.528 510.913 166.744 510.409 167.993C510.409 167.993 506.994 174.548 505.248 175.785C503.501 177.022 495.516 187.436 495.516 187.436C495.516 187.436 486.944 197.341 486.944 200.408C486.944 200.408 478.589 186.422 473.65 186.788L483.312 175.646C483.312 175.646 484.98 173.826 485.054 172.732C485.128 171.639 489.703 166.613 491.884 166.395C491.884 166.395 492.244 163.407 491.302 163.337C490.359 163.268 489.56 160.933 489.56 160.933C489.56 160.933 483.164 153.359 483.09 148.55C483.016 143.741 491.667 133.772 491.667 133.772Z" fill="#65617D"/>
<path opacity="0.1" d="M495.516 140.721C495.516 140.721 489.412 145.233 490.719 146.692C492.027 148.152 495.516 140.721 495.516 140.721Z" fill="black"/>
<path opacity="0.1" d="M495.807 159.349C495.807 159.349 507.138 155.707 508.284 159.349H495.807Z" fill="black"/>
<path opacity="0.1" d="M415.86 139.831C415.86 139.831 415.86 156.435 414.442 158.075C413.023 159.715 415.86 139.831 415.86 139.831Z" fill="black"/>
<path opacity="0.1" d="M481.348 145.182L483.455 151.116C483.455 151.116 484.292 145.293 481.348 145.182Z" fill="black"/>
<g opacity="0.1">
<path opacity="0.1" d="M430.005 81.5251C430.536 80.1585 429.146 78.8196 428.961 77.3557C428.778 77.7689 428.699 78.2205 428.73 78.6714C428.822 79.7786 429.654 80.807 429.852 81.8308C429.913 81.7338 429.964 81.6315 430.005 81.5251Z" fill="black"/>
<path opacity="0.1" d="M454.094 97.2112C453.572 94.8949 453.724 92.4813 453.197 90.1881C452.671 87.895 451.03 85.4814 448.803 85.4443C447.842 85.4443 446.723 85.7964 446.03 85.0783C445.61 84.6429 445.527 83.9572 445.212 83.4291C443.623 80.8487 438.78 82.1551 436.798 83.4801C433.826 85.4582 429.746 89.5998 425.934 88.664C425.754 89.1041 425.583 89.5488 425.439 90.0074C429.33 91.2258 433.535 86.9267 436.58 84.9115C438.563 83.5912 443.401 82.2802 444.995 84.8652C445.309 85.3933 445.393 86.079 445.813 86.5144C446.506 87.2325 447.625 86.8619 448.586 86.8804C450.813 86.9175 452.44 89.2848 452.98 91.6196C453.521 93.9545 453.345 96.4375 453.904 98.7678C453.863 98.2414 453.928 97.7122 454.094 97.2112Z" fill="black"/>
<path opacity="0.1" d="M465.018 94.4779C464.62 95.636 463.585 96.6969 462.467 96.4607C461.349 96.2244 460.803 94.9504 459.967 94.1443C459.451 93.6551 458.796 93.3395 458.093 93.2415C457.389 93.1435 456.673 93.268 456.044 93.5977C455.438 93.9595 454.94 94.4772 454.601 95.0971C454.262 95.717 454.095 96.4166 454.117 97.1231C454.409 96.2335 455.017 95.4829 455.827 95.0153C456.455 94.6852 457.171 94.5609 457.874 94.6597C458.577 94.7586 459.231 95.0757 459.745 95.5666C460.582 96.3634 461.131 97.642 462.25 97.8829C463.368 98.1238 464.403 97.0583 464.801 95.9001C465.006 95.218 465.139 94.5162 465.198 93.8062C465.15 94.0331 465.09 94.2574 465.018 94.4779Z" fill="black"/>
<path opacity="0.1" d="M468.433 84.5594C467.615 86.7182 466.122 88.5806 465.66 90.8506C465.558 91.3138 465.503 91.7771 465.448 92.2403C465.942 89.9796 467.416 88.1219 468.22 85.9677C468.584 84.9976 468.81 83.9807 468.89 82.9473C468.78 83.496 468.627 84.0351 468.433 84.5594Z" fill="black"/>
</g>
<path d="M363.45 137.293C363.55 137.293 363.631 137.212 363.631 137.112C363.631 137.012 363.55 136.931 363.45 136.931C363.35 136.931 363.27 137.012 363.27 137.112C363.27 137.212 363.35 137.293 363.45 137.293Z" fill="#E6E8EC"/>
<path d="M218.228 238.761C218.228 238.761 223.311 235.106 228.593 237.371C228.593 237.371 227.114 240.512 220.552 240.471L218.228 238.761Z" fill="#FF7A00"/>
<path d="M217.595 238.974C217.595 238.974 216.236 245.103 220.367 249.078C220.367 249.078 222.678 246.484 220.058 240.448L217.595 238.974Z" fill="#FF7A00"/>
<path d="M210.857 233.397C210.857 233.397 211.047 228.222 222.733 229.487C222.733 229.487 222.918 232.818 218.898 234.55C214.878 236.283 212.96 235.027 210.857 233.397Z" fill="#FF7A00"/>
<path d="M210.141 233.373C210.141 233.373 205.289 235.143 210.086 245.905C210.086 245.905 213.32 245.052 213.709 240.684C214.097 236.315 212.332 234.893 210.141 233.373Z" fill="#FF7A00"/>
<path d="M203.284 226.323C203.284 226.323 202.295 217.859 214.208 218.271C214.208 218.271 215.345 225.924 205.46 228.282L203.284 226.323Z" fill="#FF7A00"/>
<path d="M195.068 217.039C195.068 217.039 196.329 207.352 208.311 209.766C208.311 209.766 208.672 218.104 197.092 219.258L195.068 217.039Z" fill="#FF7A00"/>
<path d="M188.954 207.347C188.954 207.347 191.32 197.85 203.191 200.227C203.191 200.227 200.715 208.76 189.791 209.029L188.954 207.347Z" fill="#FF7A00"/>
<path d="M183.136 197.878C183.136 197.878 185.447 188.048 196.893 190.536C196.893 190.536 193.455 199.921 183.954 199.509L183.136 197.878Z" fill="#FF7A00"/>
<path d="M179.269 188.821C179.269 188.821 180.863 176.855 191.565 179.07C191.565 179.07 188.904 190.012 180.124 190.522L179.269 188.821Z" fill="#FF7A00"/>
<path d="M175.554 177.837C175.554 177.837 177.555 165.751 188.391 168.827C188.391 168.827 184.625 180.321 176.376 179.482L175.554 177.837Z" fill="#FF7A00"/>
<path d="M173.118 167.59C173.118 167.59 176.566 155.448 184.865 155.453C184.865 155.453 181.353 168.271 173.904 169.967L173.118 167.59Z" fill="#FF7A00"/>
<path d="M171.441 157.542C171.441 157.542 175.138 142.945 181.921 143.797C181.921 143.797 179.403 154.943 171.755 159.78L171.441 157.542Z" fill="#FF7A00"/>
<path d="M170.244 145.52C170.244 145.52 173.765 133.336 180.41 132.604C180.41 132.604 178.151 144.543 170.517 148.638L170.244 145.52Z" fill="#FF7A00"/>
<path d="M169.01 134.332C169.01 134.332 173.516 122.102 177.906 121.662C177.906 121.662 176.201 133.6 169.523 136.292L169.01 134.332Z" fill="#FF7A00"/>
<path d="M168.059 123.909C168.059 123.909 170.614 110.711 174.962 109.46C174.962 109.46 174.773 120.18 168.539 124.868L168.059 123.909Z" fill="#FF7A00"/>
<path d="M165.882 110.303C165.882 110.303 168.696 99.7545 172.194 98.0311C172.194 98.0311 171.959 110.345 166.806 112.818L165.882 110.303Z" fill="#FF7A00"/>
<path d="M164.168 101.376L162.818 83.0168C162.818 83.0168 169.985 96.6367 164.764 104.586L164.168 101.376Z" fill="#FF7A00"/>
<path d="M158.332 83.304C158.332 83.304 153.036 70.0686 151.862 69.3644C151.862 69.3644 161.566 77.7031 161.104 88.9465L158.332 83.304Z" fill="#FF7A00"/>
<path d="M202.956 226.272C202.956 226.272 194.49 225.493 195.197 237.418C195.197 237.418 202.859 238.344 204.966 228.403L202.956 226.272Z" fill="#FF7A00"/>
<path d="M194.656 216.733C194.656 216.733 184.92 217.076 186.182 229.241C186.182 229.241 194.407 230.39 196.667 218.947L194.656 216.733Z" fill="#FF7A00"/>
<path d="M188.89 208.144C188.89 208.144 179.893 204.327 174.648 215.265C174.648 215.265 182.943 218.415 189.735 209.844L188.89 208.144Z" fill="#FF7A00"/>
<path d="M182.943 197.976C182.943 197.976 173.724 193.903 168.812 204.582C168.812 204.582 178.363 207.472 183.751 199.606L182.943 197.976Z" fill="#FF7A00"/>
<path d="M179.394 189.076C179.394 189.076 170.369 181.071 163.742 189.771C163.742 189.771 172.901 196.289 179.865 190.915L179.394 189.076Z" fill="#FF7A00"/>
<path d="M176.039 177.536C176.039 177.536 166.949 169.341 160.397 178.528C160.397 178.528 170.498 185.148 176.418 179.311L176.039 177.536Z" fill="#FF7A00"/>
<path d="M174.006 167.206C174.006 167.206 166.848 156.819 158.997 159.497C158.997 159.497 166.427 170.504 174.024 169.689L174.006 167.206Z" fill="#FF7A00"/>
<path d="M171.635 157.468C171.635 157.468 164.32 144.311 157.98 146.887C157.98 146.887 163.276 157.009 171.899 159.715L171.635 157.468Z" fill="#FF7A00"/>
<path d="M170.683 144.816C170.683 144.816 163.29 134.527 156.792 136.07C156.792 136.07 162.911 146.553 171.478 147.846L170.683 144.816Z" fill="#FF7A00"/>
<path d="M169.741 134.068C169.741 134.068 163.872 122.431 159.459 122.487C159.459 122.487 162.513 134.152 169.449 136.065L169.741 134.068Z" fill="#FF7A00"/>
<path d="M168.266 123.64C168.266 123.64 161.797 111.873 157.259 112.026C157.259 112.026 160.734 122.167 168.105 124.706L168.266 123.64Z" fill="#FF7A00"/>
<path d="M166.876 110.998C166.876 110.998 161.991 101.242 158.221 100.264C158.221 100.264 160.933 112.276 166.483 113.652L166.876 110.998Z" fill="#FF7A00"/>
<path d="M163.618 101.047L152.962 86.0558C152.962 86.0558 156.123 101.121 165.198 103.915L163.618 101.047Z" fill="#FF7A00"/>
<path d="M156.072 84.6289C156.072 84.6289 144.057 76.9804 143.595 75.6926C143.595 75.6926 150 86.8109 161.109 88.3813L156.072 84.6289Z" fill="#FF7A00"/>
<path d="M155.231 81.0155C155.231 81.0155 141.303 68.5861 137.875 68.7298C137.875 68.7298 148.965 68.8131 155.526 80.3113L155.231 81.0155Z" fill="#FF7A00"/>
<path d="M166.82 112.925L166.33 113.008C163.049 93.2966 158.937 81.7289 154.708 80.441L154.852 79.9778C159.32 81.3305 163.456 92.7314 166.82 112.925Z" fill="#444053"/>
<path d="M172.337 160.15L171.603 160.243C171.376 158.39 171.187 156.509 171.03 154.628C169.699 138.256 168.031 123.242 166.164 112.008L166.57 111.461C168.419 122.714 170.438 138.173 171.774 154.545C171.921 156.439 172.116 158.325 172.337 160.15Z" fill="#444053"/>
<path d="M232.386 247.665C232.252 247.61 219.013 242.287 204.97 228.903C196.748 221.072 189.816 211.984 184.43 201.978C177.698 189.47 173.289 173.941 171.432 158.765L172.217 159.099C176.376 193.158 192.799 215.922 205.622 228.153C219.526 241.416 232.617 246.683 232.747 246.743L232.386 247.665Z" fill="#444053"/>
<g opacity="0.7">
<path opacity="0.7" d="M241.587 232.553C241.587 232.553 247.529 230.585 251.891 234.309C251.891 234.309 249.549 236.871 243.296 234.87L241.587 232.553Z" fill="#FF7A00"/>
<path opacity="0.7" d="M240.917 232.563C240.917 232.563 237.802 238.011 240.575 243.042C240.575 243.042 243.546 241.249 242.839 234.703L240.917 232.563Z" fill="#FF7A00"/>
<path opacity="0.7" d="M236.139 225.234C236.139 225.234 237.858 220.346 248.615 225.044C248.615 225.044 247.802 228.287 243.449 228.75C239.096 229.213 237.664 227.416 236.139 225.234Z" fill="#FF7A00"/>
<path opacity="0.7" d="M235.464 225.035C235.464 225.035 230.303 225.28 231.693 236.982C231.693 236.982 235.011 237.131 236.698 233.082C238.385 229.033 237.105 227.101 235.464 225.035Z" fill="#FF7A00"/>
<path opacity="0.7" d="M231.005 216.233C231.005 216.233 232.576 207.857 243.823 211.804C243.823 211.804 242.636 219.448 232.502 218.753L231.005 216.233Z" fill="#FF7A00"/>
<path opacity="0.7" d="M225.917 204.906C225.917 204.906 229.998 196.035 240.704 201.913C240.704 201.913 238.583 209.96 227.179 207.625L225.917 204.906Z" fill="#FF7A00"/>
<path opacity="0.7" d="M222.955 193.829C222.955 193.829 228.038 185.467 238.666 191.277C238.666 191.277 233.768 198.689 223.26 195.706L222.955 193.829Z" fill="#FF7A00"/>
<path opacity="0.7" d="M220.215 183.054C220.215 183.054 225.326 174.354 235.533 180.145C235.533 180.145 229.466 188.08 220.506 184.851L220.215 183.054Z" fill="#FF7A00"/>
<path opacity="0.7" d="M219.212 173.251C219.212 173.251 224.295 162.295 233.833 167.609C233.833 167.609 228.043 177.258 219.508 175.127L219.212 173.251Z" fill="#FF7A00"/>
<path opacity="0.7" d="M218.921 161.66C218.921 161.66 224.42 150.718 233.851 156.889C233.851 156.889 226.841 166.738 219.212 163.453L218.921 161.66Z" fill="#FF7A00"/>
<path opacity="0.7" d="M219.642 151.14C219.642 151.14 226.537 140.577 234.457 143.056C234.457 143.056 227.299 154.248 219.67 153.646L219.642 151.14Z" fill="#FF7A00"/>
<path opacity="0.7" d="M221.019 141.054C221.019 141.054 228.874 128.217 235.103 131.062C235.103 131.062 229.387 140.948 220.663 143.287L221.019 141.054Z" fill="#FF7A00"/>
<path opacity="0.7" d="M223.45 129.218C223.45 129.218 230.427 118.642 236.98 119.92C236.98 119.92 231.282 130.645 222.775 132.28L223.45 129.218Z" fill="#FF7A00"/>
<path opacity="0.7" d="M225.584 118.174C225.584 118.174 233.519 107.838 237.839 108.728C237.839 108.728 232.668 119.615 225.497 120.198L225.584 118.174Z" fill="#FF7A00"/>
<path opacity="0.7" d="M227.77 107.936C227.77 107.936 234.124 96.0993 238.653 96.2012C238.653 96.2012 235.289 106.393 227.941 108.997L227.77 107.936Z" fill="#FF7A00"/>
<path opacity="0.7" d="M229.734 94.2972C229.734 94.2972 235.547 85.069 239.401 84.4622C239.401 84.4622 235.52 96.1503 229.868 96.9703L229.734 94.2972Z" fill="#FF7A00"/>
<path opacity="0.7" d="M230.741 85.2589L234.9 67.3353C234.9 67.3353 237.705 82.4701 230.372 88.5203L230.741 85.2589Z" fill="#FF7A00"/>
<path opacity="0.7" d="M230.534 66.2698C230.534 66.2698 229.406 52.0523 228.487 51.0284C228.487 51.0284 235.293 61.8966 231.49 72.4775L230.534 66.2698Z" fill="#FF7A00"/>
<path opacity="0.7" d="M230.709 216.075C230.709 216.075 222.854 212.8 219.998 224.414C219.998 224.414 227.026 227.606 232.012 218.72L230.709 216.075Z" fill="#FF7A00"/>
<path opacity="0.7" d="M225.617 204.489C225.617 204.489 216.222 201.913 213.81 213.921C213.81 213.921 221.319 217.474 226.878 207.222L225.617 204.489Z" fill="#FF7A00"/>
<path opacity="0.7" d="M222.659 194.571C222.659 194.571 215.206 188.242 206.948 197.123C206.948 197.123 213.93 202.604 222.96 196.447L222.659 194.571Z" fill="#FF7A00"/>
<path opacity="0.7" d="M219.999 183.091C219.999 183.091 212.411 176.452 204.551 185.194C204.551 185.194 212.809 190.8 220.29 184.893L219.999 183.091Z" fill="#FF7A00"/>
<path opacity="0.7" d="M219.254 173.534C219.254 173.534 213.011 163.198 204.106 169.527C204.106 169.527 210.913 178.486 219.157 175.429L219.254 173.534Z" fill="#FF7A00"/>
<path opacity="0.7" d="M219.476 161.512C219.476 161.512 213.228 150.982 204.227 157.806C204.227 157.806 211.907 167.141 219.291 163.333L219.476 161.512Z" fill="#FF7A00"/>
<path opacity="0.7" d="M220.594 151.042C220.594 151.042 216.846 138.998 208.552 139.206C208.552 139.206 212.383 151.936 219.873 153.442L220.594 151.042Z" fill="#FF7A00"/>
<path opacity="0.7" d="M221.227 141.04C221.227 141.04 218.145 126.299 211.329 126.869C211.329 126.869 213.381 138.113 220.811 143.264L221.227 141.04Z" fill="#FF7A00"/>
<path opacity="0.7" d="M224.074 128.676C224.074 128.676 220.067 116.631 213.404 116.168C213.404 116.168 216.139 128.009 223.93 131.794L224.074 128.676Z" fill="#FF7A00"/>
<path opacity="0.7" d="M226.361 118.137C226.361 118.137 224.212 105.277 219.979 104.021C219.979 104.021 219.434 116.066 225.492 119.967L226.361 118.137Z" fill="#FF7A00"/>
<path opacity="0.7" d="M228.071 107.741C228.071 107.741 225.377 94.5752 221.01 93.3799C221.01 93.3799 221.315 104.095 227.604 108.719L228.071 107.741Z" fill="#FF7A00"/>
<path opacity="0.7" d="M230.474 95.2608C230.474 95.2608 228.704 84.4899 225.391 82.4238C225.391 82.4238 224.416 94.7049 229.304 97.6744L230.474 95.2608Z" fill="#FF7A00"/>
<path opacity="0.7" d="M230.316 84.7864L224.591 67.2982C224.591 67.2982 223.136 82.6276 230.973 88.0015L230.316 84.7864Z" fill="#FF7A00"/>
<path opacity="0.7" d="M227.983 66.8628C227.983 66.8628 218.783 55.9761 218.741 54.6049C218.741 54.6049 221.555 67.113 231.68 71.9402L227.983 66.8628Z" fill="#FF7A00"/>
<path opacity="0.7" d="M228.251 63.1613C228.251 63.1613 218.644 47.137 215.312 46.2522C215.312 46.2522 225.885 49.6433 228.713 62.5776L228.251 63.1613Z" fill="#FF7A00"/>
<path opacity="0.7" d="M229.845 97.0815L229.355 97.012C232.072 77.2167 231.564 64.9403 227.923 62.4525L228.204 62.0449C232.063 64.6808 232.631 76.7905 229.845 97.0815Z" fill="#444053"/>
<path opacity="0.7" d="M221.102 143.815L220.372 143.681C220.705 141.851 221.079 139.975 221.495 138.15C225.081 122.125 227.964 107.292 229.494 95.9928L230.044 95.5944C228.491 106.893 225.811 122.251 222.216 138.293C221.809 140.146 221.43 141.995 221.102 143.815Z" fill="#444053"/>
<path opacity="0.7" d="M252.46 245.275C252.349 245.187 241.286 236.148 231.855 219.188C226.32 209.261 222.391 198.515 220.215 187.353C217.498 173.399 217.905 157.241 220.626 142.222L221.278 142.773C215.155 176.536 224.05 203.164 232.678 218.665C242.017 235.472 252.95 244.413 253.061 244.501L252.46 245.275Z" fill="#444053"/>
</g>
<path d="M142.029 202.599C140.942 203.048 139.814 203.386 138.66 203.609C136.644 203.987 134.598 204.181 132.547 204.188C132.607 204.73 132.653 205.235 132.699 205.693C132.81 206.954 132.875 207.82 132.875 207.82L130.708 207.672L112.834 206.449L102.381 204.897C102.886 205.576 103.434 206.221 104.022 206.828C104.631 207.475 105.335 208.023 106.11 208.455C106.11 208.455 115.542 216.112 117.173 216.182C117.404 216.182 117.478 216.413 117.441 216.779C121.41 216.779 133.753 217.358 130.329 224.247C129.762 225.475 128.763 226.45 127.524 226.985C123.564 228.667 117.589 225.642 114.511 223.784C114.211 224.372 113.924 224.919 113.67 225.387C113.148 226.374 112.783 227.027 112.783 227.027L112.473 226.804L96.6144 215.482L93.1394 212.527C92.1187 212.48 91.1079 212.304 90.1312 212.003L89.6691 211.855C89.649 211.895 89.632 211.937 89.6183 211.98C89.4918 212.341 89.3974 212.714 89.3364 213.092C89.3364 213.147 89.3364 213.203 89.3364 213.259C89.2716 213.69 89.2284 214.125 89.207 214.56C89.207 214.857 89.1839 215.172 89.1839 215.487C89.1562 221.797 91.6792 231.937 91.6792 231.937C91.6792 231.937 98.2178 248.656 95.8981 252.515C95.7786 252.711 95.6215 252.881 95.436 253.016C94.6181 253.609 94.1283 254.665 93.8742 255.92C93.01 260.016 94.5257 266.265 94.5257 266.265C94.5257 266.265 94.3871 266.497 94.1514 266.858C93.6415 267.675 93.0667 268.45 92.4324 269.174C92.3354 269.286 92.2337 269.401 92.1274 269.508C91.8413 269.809 91.5323 270.088 91.2033 270.342C91.2633 270.523 91.328 270.708 91.3927 270.907C91.4574 271.106 91.5406 271.417 91.6053 271.695C92.1199 273.971 91.9181 276.352 91.0277 278.509C90.422 280.082 90.0304 281.729 89.8632 283.406C89.5627 286.477 89.6419 289.573 90.0989 292.625C90.0295 292.588 89.9695 292.551 89.9002 292.518C84.7894 289.841 79.7511 287.044 74.7851 284.129C73.3295 283.285 71.8832 282.424 70.4461 281.557C68.6778 280.489 66.9172 279.408 65.1643 278.315C62.8539 276.869 60.5434 275.387 58.233 273.872L57.1517 273.149L56.7358 272.867C56.1489 272.473 55.5713 272.079 54.9891 271.681C52.6 268.585 50.4173 265.336 48.4551 261.952C48.127 261.364 47.8312 260.803 47.5863 260.289V260.261L47.4292 259.923L46.7777 259.691C45.5531 259.261 44.7768 258.959 44.7768 258.959C45.342 256.892 45.6127 254.756 45.5809 252.613C45.5439 248.443 44.3933 242.884 39.6522 238.428C32.6469 231.789 31.6811 225.234 31.5795 222.718C31.5795 222.542 31.5795 222.385 31.5795 222.255C31.5771 222.043 31.5864 221.831 31.6072 221.62L32.1432 221.106C30.7847 220.833 29.5093 220.708 29.5093 220.708C29.5093 220.708 34.1579 203.845 41.9858 198.216C45.8674 195.437 49.0974 190.804 51.3801 186.829C55.5443 179.646 60.2206 172.773 65.3723 166.265L66.7817 164.482L67.1929 163.958L67.2807 163.852L67.3916 163.703C67.2006 163.413 67.0066 163.126 66.8094 162.842L66.68 162.652C66.0654 161.725 65.5386 160.799 65.6218 159.691C65.6218 159.691 65.6218 159.668 65.6218 159.659C65.6218 159.58 65.6218 159.506 65.6218 159.423C65.6414 159.238 65.6754 159.055 65.7235 158.876C65.7393 158.906 65.7578 158.934 65.7789 158.959C66.4397 157.032 68.9858 156.18 70.8619 155.114C75.2842 152.622 77.1695 147.169 78.1168 142.097C78.8515 138.15 79.4615 133.726 82.5113 131.191C84.4798 129.561 87.1322 129.023 89.1238 127.407C90.2761 126.386 91.2289 125.159 91.9334 123.789C92.3955 123.001 92.7929 122.186 93.2226 121.398C95.1911 117.831 97.7788 114.514 101.203 112.378C104.627 110.243 108.971 109.413 112.723 110.85C114.169 111.401 115.495 112.239 116.882 112.856C117.738 113.206 118.622 113.481 119.525 113.68C122.348 114.343 125.32 114.514 127.972 115.695C132.283 117.613 135.088 121.857 137.648 125.887C138.974 127.972 141.058 131.02 142.241 134.087C142.241 133.976 142.241 133.874 142.241 133.767C142.812 135.118 143.125 136.563 143.166 138.029C143.189 138.653 143.122 139.277 142.967 139.882C142.542 141.457 141.456 142.453 140.093 143.185L139.875 143.292C139.584 143.442 139.285 143.577 138.979 143.695C138.933 143.95 138.882 144.209 138.827 144.459C138.803 144.566 138.776 144.677 138.748 144.784C138.688 145.043 138.619 145.298 138.545 145.553C137.557 148.864 135.63 151.816 133 154.049C131.178 155.611 129.072 156.807 126.798 157.57C126.637 157.625 126.466 157.667 126.304 157.718C126.166 158.106 125.97 158.47 125.722 158.797C125.542 159.028 125.33 159.233 125.093 159.404C124.946 159.505 124.791 159.594 124.631 159.673C124.592 159.698 124.55 159.718 124.506 159.733C122.843 160.484 120.565 159.895 118.961 158.774C118.878 158.719 118.799 158.654 118.721 158.594C118.721 158.858 118.679 159.136 118.633 159.423C118.587 159.71 118.555 159.886 118.504 160.127C118.453 160.368 118.434 160.484 118.402 160.655C118.37 160.826 118.347 160.942 118.319 161.077L118.263 161.313C117.348 165.784 115.602 170.043 113.116 173.867C112.755 174.415 112.365 174.942 111.947 175.447L110.801 177.198V177.434C111.018 181.465 109.696 185.222 107.829 188.455C107.204 189.527 106.518 190.562 105.773 191.555L106.032 191.708C108.62 193.185 113.721 195.812 116.946 195.59C116.946 195.59 129.146 197.169 130.56 196.377C130.754 196.266 130.943 196.419 131.119 196.748C133.092 195.543 137.63 192.991 141.211 192.653C143.715 192.412 145.753 193.25 146.132 196.359C146.511 199.467 144.644 201.473 142.029 202.599Z" fill="url(#paint0_linear)"/>
<path d="M75.2519 266.302C76.0329 267.638 76.4989 269.135 76.6142 270.679C76.7296 272.223 76.4912 273.773 75.9173 275.211C74.7944 278.032 74.6697 281.548 74.7852 284.129C73.3296 283.285 71.8832 282.424 70.4461 281.558C68.6778 280.489 66.9173 279.408 65.1644 278.315C62.8539 276.869 60.5435 275.387 58.233 273.872L57.1517 273.149L56.7358 272.867C56.6995 272.799 56.6544 272.737 56.6018 272.681C55.9826 272.024 52.3737 266.835 50.2296 262.897C49.8414 262.175 49.5041 261.507 49.2361 260.896V260.864C48.774 259.835 48.5568 259.01 48.6954 258.635C48.8634 258.045 49.1485 257.494 49.5336 257.017C49.9186 256.539 50.3958 256.144 50.9366 255.856C53.5982 254.466 57.868 255.749 62.0915 257.792C65.7253 259.633 69.2081 261.76 72.5071 264.153L72.8814 264.426L72.9183 264.454C74.3046 265.441 75.1086 266.094 75.1086 266.094C75.1086 266.094 75.1687 266.168 75.2519 266.302Z" fill="#FBBEBE"/>
<path opacity="0.05" d="M74.5493 265.686C75.3318 267.023 75.7986 268.522 75.914 270.068C76.0293 271.613 75.7901 273.165 75.2148 274.604C74.0919 277.425 73.9671 280.941 74.0826 283.526C72.6286 282.677 71.1822 281.818 69.7436 280.951C67.9722 279.882 66.2116 278.801 64.4619 277.708C62.1514 276.258 59.8409 274.775 57.5536 273.26L56.4723 272.538L56.0564 272.255C56.0189 272.188 55.9739 272.126 55.9224 272.07C55.3032 271.417 51.6942 266.228 49.5501 262.286C49.162 261.563 48.8246 260.896 48.5566 260.284V260.257C48.0945 259.224 47.8773 258.404 48.016 258.024C48.1847 257.434 48.47 256.883 48.855 256.406C49.24 255.928 49.7168 255.533 50.2571 255.244C52.9188 253.854 57.1885 255.138 61.412 257.181C65.0459 259.022 68.5286 261.149 71.8276 263.541L72.2019 263.815L72.2389 263.842C73.6252 264.829 74.4292 265.482 74.4292 265.482C74.4292 265.482 74.4662 265.552 74.5493 265.686Z" fill="black"/>
<path d="M91.5636 276.92C91.4292 277.713 91.2108 278.49 90.912 279.237C90.4003 280.58 90.0483 281.98 89.8631 283.406C89.4992 286.433 89.5116 289.494 89.9001 292.518C84.7893 289.841 79.751 287.044 74.785 284.129C73.3294 283.285 71.8831 282.424 70.4459 281.558C70.1225 279.093 69.6604 276.925 69.1382 276.392C68.4543 275.669 64.5496 270.073 62.1237 265.658C61.8094 265.102 61.5368 264.565 61.2826 264.055V264.032C61.1856 263.828 61.0932 263.634 61.0054 263.439C60.3816 262.096 60.0489 261.049 60.2152 260.544C60.5395 259.446 61.2068 258.481 62.119 257.792C66.2178 254.79 74.7388 258.853 81.282 262.888L81.4438 262.985C82.6822 263.759 83.8559 264.523 84.9095 265.237L85.524 265.654C88.2319 267.507 90.0294 268.947 90.0294 268.947C90.476 269.638 90.8346 270.382 91.0969 271.162C91.2512 271.602 91.3793 272.05 91.4804 272.505C91.8002 273.957 91.8285 275.458 91.5636 276.92Z" fill="#FBBEBE"/>
<path opacity="0.1" d="M50.2526 262.897C53.612 264.074 58.5703 265.635 61.2689 265.677C61.5484 265.685 61.8281 265.671 62.1053 265.635C64.0045 265.376 69.8592 265.793 75.2333 266.279C77.3867 266.469 79.4615 266.668 81.1759 266.844L85.4826 267.307V265.64C84.2857 264.815 82.8948 263.898 81.4069 262.971C74.8406 258.904 66.2133 254.748 62.0822 257.774C56.2644 254.957 50.3589 253.604 48.6815 258.617C48.4874 259.27 49.1944 260.928 50.2526 262.897Z" fill="black"/>
<path d="M34.1116 224.071C34.204 226.568 35.1374 233.049 41.8239 239.595C50.3541 247.934 46.7174 259.923 46.7174 259.923C46.7174 259.923 56.8835 263.926 61.2687 264.032C61.5482 264.041 61.8279 264.027 62.1051 263.991C64.7344 263.625 75.187 264.593 81.1942 265.2L85.5009 265.663V230.214L38.3951 218.744L34.13 223.006C34.1012 223.36 34.095 223.716 34.1116 224.071Z" fill="#5C5C8E"/>
<g opacity="0.1">
<path opacity="0.1" d="M84.7294 265.223L85.5011 265.302V265.682L81.1944 265.218C76.883 264.783 70.2936 264.162 65.9453 263.981C68.9535 263.713 78.9116 264.635 84.7294 265.223Z" fill="black"/>
<path opacity="0.1" d="M34.1302 223.029L38.3953 218.767L41.2418 219.457L37.6883 223.029C37.6657 223.384 37.6657 223.74 37.6883 224.094C37.7807 226.591 38.7142 233.068 45.4006 239.618C53.9309 247.957 50.2942 259.942 50.2942 259.942C50.2942 259.942 58.7043 263.254 63.5239 263.935C63.0607 263.933 62.5977 263.959 62.1376 264.014C61.8604 264.05 61.5807 264.064 61.3013 264.055C56.916 263.944 46.75 259.942 46.75 259.942C46.75 259.942 50.3866 247.957 41.8564 239.618C35.1376 233.068 34.2041 226.591 34.1117 224.108C34.0946 223.748 34.1008 223.388 34.1302 223.029Z" fill="black"/>
</g>
<path d="M128.258 199.036C128.258 199.036 142.505 189.132 143.544 198.045C144.584 206.958 128.258 205.707 128.258 205.707V199.036Z" fill="#FBBEBE"/>
<path d="M103.694 192.467C103.694 192.467 111.397 197.563 115.662 197.262C115.662 197.262 127.307 198.828 128.661 198.045C130.015 197.262 130.846 209.358 130.846 209.358L111.711 208.001L99.4379 206.124C99.4379 206.124 93.3013 202.372 93.3013 199.138C93.3013 195.905 103.694 192.467 103.694 192.467Z" fill="#F7CDDD"/>
<path d="M103.694 192.467C103.694 192.467 111.397 197.563 115.662 197.262C115.662 197.262 127.307 198.828 128.661 198.045C130.015 197.262 130.846 209.358 130.846 209.358L111.711 208.001L99.4379 206.124C99.4379 206.124 93.3013 202.372 93.3013 199.138C93.3013 195.905 103.694 192.467 103.694 192.467Z" fill="#FF7A00"/>
<path d="M114.987 218.243C114.987 218.243 132.311 217.525 128.43 225.614C124.548 233.702 111.425 223.881 111.425 223.881L114.987 218.243Z" fill="#FBBEBE"/>
<path d="M97.5664 201.015C97.5664 201.015 111.605 190.485 109.632 177.661C107.659 164.838 97.5664 187.464 97.5664 187.464V201.015Z" fill="#5C5C8E"/>
<path d="M101.457 142.88C101.46 147.492 103.249 151.924 106.448 155.24C108.173 157.025 110.25 158.431 112.547 159.367C113.288 159.678 114.051 159.932 114.83 160.127C115.657 160.341 116.499 160.496 117.348 160.59C117.958 160.65 118.573 160.683 119.197 160.683C121.182 160.679 123.153 160.336 125.024 159.668C128.101 158.597 130.825 156.696 132.897 154.175C134.968 151.654 136.308 148.61 136.768 145.377C137.228 142.143 136.791 138.845 135.506 135.844C134.22 132.843 132.135 130.255 129.48 128.363C126.824 126.471 123.7 125.349 120.45 125.119C117.2 124.889 113.95 125.56 111.056 127.06C108.161 128.559 105.734 130.829 104.041 133.619C102.348 136.41 101.454 139.613 101.457 142.88Z" fill="#FBBEBE"/>
<path opacity="0.1" d="M34.1116 224.071C35.7011 224.363 37.665 224.9 37.665 225.725C37.665 227.115 59.8455 234.624 59.8455 234.624C59.8455 234.624 59.0137 236.565 61.2318 239.906C63.4498 243.246 81.4853 262.425 81.4853 262.425L81.4252 262.99L81.1942 265.2L80.0944 275.767C80.0944 275.767 87.0258 273.265 89.2438 273.543C89.9601 273.631 90.741 273.172 91.4573 272.505C91.1936 271.243 90.7036 270.039 90.0109 268.952C90.0109 268.952 88.2134 267.535 85.5009 265.658V230.214L38.3951 218.744L34.13 223.006C34.1012 223.36 34.095 223.716 34.1116 224.071Z" fill="black"/>
<path d="M32.1155 222.112C32.1155 222.112 37.6606 222.663 37.6606 224.057C37.6606 225.452 59.841 232.957 59.841 232.957C59.841 232.957 59.0093 234.898 61.2273 238.238C63.4454 241.578 81.4808 260.757 81.4808 260.757L80.0946 274.099C80.0946 274.099 87.0259 271.597 89.244 271.875C90.2375 272 91.3326 271.078 92.2383 270.022C92.9896 269.132 93.6593 268.175 94.2392 267.164C94.2392 267.164 91.7393 256.592 95.071 254.091C98.4027 251.589 91.4667 233.244 91.4667 233.244C91.4667 233.244 88.329 220.198 89.2532 214.602C89.312 214.229 89.4017 213.862 89.5212 213.504C89.5212 213.462 89.5443 213.421 89.5628 213.379C91.5406 208.033 112.815 163.184 112.815 163.184C112.802 161.912 112.712 160.642 112.547 159.381C112.506 159.029 112.45 158.663 112.381 158.297C112.274 157.63 112.13 156.97 111.951 156.319C111.831 155.893 111.702 155.485 111.549 155.096C110.893 153.4 109.886 152.099 108.379 152.066C108.379 152.066 106.716 150.213 102.834 149.722C99.9692 149.347 95.9027 149.722 90.3576 152.066C77.3266 157.625 74.2768 157.903 74.2768 157.903L67.7243 166.506L66.375 168.276C61.4434 174.725 56.9789 181.52 53.0159 188.608C50.8348 192.537 47.7481 197.119 44.0467 199.87C36.5562 205.434 32.1155 222.112 32.1155 222.112Z" fill="#FF7A00"/>
<path opacity="0.1" d="M80.7183 189.966C80.7183 189.966 62.2068 194.552 55.0305 206.124L80.7183 189.966Z" fill="black"/>
<path opacity="0.1" d="M74.9976 210.294C74.9976 210.294 71.4995 233.855 72.4699 235.63C73.4403 237.404 74.9976 210.294 74.9976 210.294Z" fill="black"/>
<path opacity="0.1" d="M76.2499 222.389C77.5993 224.159 83.0658 237.821 83.0658 237.821L81.4855 260.757L80.0992 274.099C80.0992 274.099 87.0306 271.597 89.2532 271.875C90.2421 272 91.3419 271.083 92.2476 270.022C90.8059 262.207 87.7283 245.858 87.1646 245.543C86.4299 245.126 82.6869 231.988 82.4882 228.338C82.2895 224.687 77.0771 216.46 77.0771 216.46C77.0771 216.46 74.896 220.62 76.2499 222.389Z" fill="black"/>
<path opacity="0.1" d="M81.4854 199.87C81.8227 200.913 82.3588 206.958 82.3588 206.958C82.7377 212.29 86.7579 214.032 89.2532 214.588C89.312 214.215 89.4017 213.848 89.5212 213.49C91.1847 208.77 112.815 163.171 112.815 163.171C112.793 160.856 112.503 158.552 111.951 156.305C107.242 154.915 99.7843 157.056 99.7843 157.056C97.6309 156.773 90.6025 170.787 90.6025 170.787C90.6025 170.787 85.9169 181.52 85.404 182.98C84.891 184.439 85.404 186.843 85.196 187.677C84.9881 188.511 82.7978 189.234 82.4882 190.387C82.1786 191.541 82.3819 193.82 82.1739 194.237C81.966 194.654 81.125 198.828 81.4854 199.87Z" fill="black"/>
<path d="M83.1489 199.036C83.4908 200.079 84.0223 206.124 84.0223 206.124C84.3365 210.562 87.183 212.513 89.5674 213.365C90.6381 213.749 91.759 213.973 92.8944 214.032L96.24 216.942L111.679 228.361C111.679 228.361 117.436 217.706 115.874 217.636C114.312 217.567 105.306 209.993 105.306 209.993C102.534 208.519 99.7889 203.59 98.5089 201.061C98.5844 200.756 98.64 200.447 98.6752 200.134C99.2344 195.414 110.879 177.342 110.879 177.342C110.879 177.342 115.38 172.028 117.136 162.184C117.187 161.961 117.219 161.721 117.261 161.494C117.31 161.187 117.341 160.877 117.353 160.567C117.561 156.782 114.816 155.406 111.554 155.077C109.859 154.945 108.154 154.998 106.471 155.235C104.786 155.446 103.119 155.774 101.48 156.217C100.094 156.036 96.6466 161.85 94.3916 165.969C93.1763 168.202 92.303 169.948 92.303 169.948C92.303 169.948 87.5942 180.687 87.0674 182.146C86.5407 183.605 87.0674 186.005 86.8595 186.843C86.6516 187.682 84.4612 188.4 84.1563 189.553C83.8513 190.707 84.0454 192.986 83.8374 193.403C83.6295 193.82 82.7977 197.994 83.1489 199.036Z" fill="#FF7A00"/>
<path opacity="0.1" d="M65.2336 175.002C68.1633 178.023 72.9414 178.032 76.7582 176.499C80.5751 174.965 83.8144 172.167 87.3586 170.013C89.6691 168.623 92.0905 167.451 94.3547 166.001C94.6874 165.783 95.0109 165.566 95.3251 165.343C97.9406 163.49 100.2 161.114 102.903 159.414C104.715 158.212 106.823 157.535 108.994 157.459C109.995 157.448 110.987 157.657 111.9 158.07C112.06 158.14 112.214 158.22 112.362 158.311C113.251 158.827 114.073 159.449 114.812 160.164C115.574 160.854 116.309 161.591 117.122 162.23C117.173 162.008 117.205 161.767 117.247 161.54C117.297 161.233 117.327 160.924 117.339 160.613C117.949 160.674 118.564 160.706 119.188 160.706C121.178 160.696 123.151 160.345 125.024 159.668C125.024 159.594 125.052 159.515 125.065 159.441C125.731 155.939 126.914 152.228 129.742 150.259C131.373 149.115 133.979 148.652 136.234 147.781C137.016 145.05 137.135 142.17 136.579 139.384C136.023 136.597 134.809 133.985 133.04 131.765C131.27 129.545 128.995 127.783 126.407 126.625C123.818 125.468 120.99 124.949 118.16 125.112C115.331 125.275 112.581 126.115 110.142 127.563C107.702 129.01 105.644 131.022 104.14 133.43C102.635 135.839 101.728 138.574 101.495 141.406C101.261 144.238 101.708 147.085 102.797 149.708C99.9322 149.333 95.8658 149.708 90.3207 152.052C77.2896 157.611 74.2398 157.889 74.2398 157.889L67.7243 166.506C68.4313 167.59 69.2307 168.66 69.3047 169.925C69.4525 172.269 67.1975 173.886 65.2336 175.002Z" fill="black"/>
<path d="M129.765 148.596C126.951 150.57 125.754 154.276 125.089 157.774C124.881 158.867 124.682 160.02 124.016 160.887C122.524 162.828 119.52 162.276 117.57 160.887C115.62 159.497 114.086 157.384 111.91 156.398C109.017 155.091 105.621 156.046 102.917 157.746C100.214 159.446 97.9498 161.822 95.3344 163.671C92.8067 165.459 89.988 166.733 87.354 168.341C83.8144 170.504 80.5798 173.298 76.7583 174.826C72.9367 176.355 68.1633 176.355 65.2383 173.335C67.2022 172.241 69.4572 170.624 69.3047 168.285C69.1522 165.946 66.4305 164.19 66.6153 161.799C66.8002 159.409 69.6143 158.455 71.6336 157.278C75.8618 154.813 77.6409 149.402 78.565 144.399C79.2674 140.494 79.845 136.125 82.7608 133.619C84.6369 132.002 87.1831 131.474 89.073 129.876C90.8659 128.356 91.8456 126.054 92.9916 123.937C94.8723 120.402 97.3399 117.122 100.607 115.01C103.874 112.897 108.028 112.082 111.614 113.504C113 114.046 114.239 114.894 115.597 115.482C118.97 116.946 122.838 116.752 126.184 118.29C130.301 120.189 132.976 124.386 135.426 128.37C137.519 131.775 141.613 137.802 140.467 142.203C139.298 146.692 132.819 146.451 129.765 148.596Z" fill="#7C5C5C"/>
<g opacity="0.1">
<path opacity="0.1" d="M66.6153 161.508C66.6303 161.324 66.6628 161.143 66.7124 160.966C67.4563 162.142 68.3851 163.282 68.4729 164.672C68.4942 164.99 68.4677 165.31 68.3944 165.621C67.5672 164.287 66.4998 163.041 66.6153 161.508Z" fill="black"/>
<path opacity="0.1" d="M75.9264 171.208C79.7479 169.67 82.9826 166.877 86.5222 164.723C89.1561 163.115 91.9749 161.841 94.5025 160.053C97.118 158.2 99.3822 155.823 102.085 154.128C104.789 152.432 108.185 151.473 111.078 152.78C113.254 153.766 114.775 155.856 116.738 157.269C118.702 158.682 121.692 159.233 123.185 157.292C123.855 156.425 124.049 155.277 124.257 154.183C124.922 150.681 126.105 146.975 128.933 145.001C131.992 142.861 138.466 143.102 139.64 138.585C139.835 137.784 139.887 136.954 139.792 136.135C140.545 138.14 140.929 140.16 140.476 141.921C139.298 146.438 132.824 146.197 129.765 148.337C126.955 150.31 125.754 154.017 125.088 157.519C124.881 158.612 124.686 159.766 124.021 160.627C122.524 162.568 119.52 162.017 117.552 160.604C115.583 159.191 114.068 157.102 111.891 156.115C108.998 154.809 105.602 155.768 102.899 157.463C100.196 159.159 97.9313 161.54 95.3158 163.388C92.7882 165.181 89.9694 166.451 87.3355 168.058C83.7959 170.226 80.5612 173.015 76.7397 174.544C72.9182 176.072 68.1448 176.068 65.2197 173.047C65.9755 172.637 66.6931 172.159 67.3638 171.621C70.0347 172.598 73.2232 172.292 75.9264 171.208Z" fill="black"/>
</g>
<path d="M376.864 125.73L357.919 106.629C356.99 105.677 355.882 104.919 354.659 104.398C353.437 103.878 352.123 103.605 350.795 103.596C349.466 103.587 348.149 103.842 346.92 104.346C345.69 104.849 344.572 105.593 343.631 106.532L224.66 224.794L174.357 173.969C172.489 172.07 169.945 170.992 167.285 170.973C164.624 170.954 162.065 171.995 160.171 173.867L141.021 192.861C139.129 194.756 138.058 197.322 138.04 200.003C138.021 202.684 139.058 205.265 140.924 207.185L217.318 284.374C219.207 286.272 221.766 287.347 224.441 287.366C227.115 287.385 229.689 286.347 231.606 284.476L376.758 140.049C377.708 139.119 378.464 138.009 378.984 136.784C379.504 135.559 379.776 134.243 379.786 132.912C379.796 131.58 379.543 130.26 379.042 129.028C378.54 127.795 377.8 126.674 376.864 125.73Z" fill="#3ACC6C"/>
<g opacity="0.5">
<path opacity="0.5" d="M348.316 278.889C348.316 278.889 334.185 278.037 335.84 287.964C335.755 288.468 335.831 288.985 336.056 289.443C336.282 289.9 336.646 290.275 337.097 290.512C337.097 290.512 337.097 289.776 338.543 290.026C339.051 290.113 339.568 290.138 340.082 290.1C340.775 290.055 341.434 289.783 341.958 289.326C341.958 289.326 345.927 287.682 347.475 281.168C347.475 281.168 348.617 279.751 348.57 279.385L346.186 280.409C346.186 280.409 347.004 282.132 346.362 283.563C346.362 283.563 346.283 280.469 345.826 280.543C345.733 280.543 344.587 281.141 344.587 281.141C344.587 281.141 345.973 284.143 344.929 286.329C344.929 286.329 345.331 282.623 344.148 281.358L342.471 282.34C342.471 282.34 344.107 285.444 342.998 287.974C342.998 287.974 343.284 284.092 342.115 282.581L340.595 283.767C340.595 283.767 342.133 286.825 341.195 288.928C341.195 288.928 341.075 284.407 340.271 284.064C340.271 284.064 338.94 285.24 338.737 285.727C338.737 285.727 339.791 287.946 339.139 289.118C339.139 289.118 338.737 286.102 338.409 286.093C338.409 286.093 337.083 288.085 336.944 289.452C337.008 288.187 337.402 286.962 338.086 285.898C337.321 286.045 336.616 286.412 336.057 286.955C336.057 286.955 336.26 285.565 338.414 285.417C338.414 285.417 339.509 283.906 339.8 283.814C339.8 283.814 337.66 283.633 336.362 284.212C336.362 284.212 337.503 282.878 340.188 283.485L341.69 282.257C341.69 282.257 338.876 281.868 337.679 282.294C337.679 282.294 339.065 281.117 342.097 281.974L343.732 280.997C343.732 280.997 341.329 280.478 339.897 280.663C339.897 280.663 341.408 279.848 344.213 280.733L345.382 280.205C345.382 280.205 343.621 279.857 343.104 279.806C342.586 279.755 342.563 279.607 342.563 279.607C343.678 279.422 344.821 279.551 345.867 279.978C345.867 279.978 348.358 279.047 348.316 278.889Z" fill="#FF7A00"/>
</g>
<g opacity="0.5">
<path opacity="0.5" d="M322.961 209.557C322.961 209.557 315.785 221.792 325.369 224.812C325.778 225.117 326.272 225.285 326.781 225.291C327.291 225.298 327.789 225.143 328.206 224.849C328.206 224.849 327.564 224.493 328.428 223.335C328.735 222.92 328.992 222.47 329.195 221.996C329.465 221.354 329.521 220.643 329.357 219.967C329.357 219.967 329.694 215.672 324.611 211.336C324.611 211.336 323.867 209.668 323.525 209.543L323.349 212.137C323.349 212.137 325.249 212.193 326.233 213.416C326.233 213.416 323.46 212.082 323.303 212.522C323.275 212.615 323.271 213.912 323.271 213.912C323.271 213.912 326.579 214.023 328.04 215.959C328.04 215.959 324.934 213.921 323.266 214.403L323.377 216.349C323.377 216.349 326.88 216.293 328.626 218.433C328.626 218.433 325.304 216.413 323.433 216.77L323.798 218.669C323.798 218.669 327.217 218.67 328.654 220.472C328.654 220.472 324.583 218.531 323.913 219.082C323.913 219.082 324.375 220.805 324.689 221.208C324.689 221.208 327.143 221.273 327.887 222.389C327.887 222.389 325.027 221.38 324.865 221.667C324.865 221.667 326.039 223.756 327.176 224.502C326.081 223.869 325.172 222.961 324.537 221.866C324.309 222.621 324.309 223.427 324.537 224.182C324.537 224.182 323.377 223.358 324.246 221.403C324.246 221.403 323.396 219.74 323.446 219.434C323.446 219.434 322.319 221.264 322.24 222.677C322.24 222.677 321.575 221.051 323.331 218.924L322.924 217.025C322.924 217.025 321.302 219.369 321.136 220.629C321.136 220.629 320.715 218.864 322.86 216.538L322.73 214.634C322.73 214.634 321.178 216.543 320.697 217.905C320.697 217.905 320.655 216.186 322.712 214.083L322.776 212.8C322.776 212.8 321.667 214.218 321.39 214.653C321.113 215.088 320.97 215.047 320.97 215.047C321.309 213.968 321.941 213.006 322.795 212.267C322.795 212.267 323.118 209.59 322.961 209.557Z" fill="#FF7A00"/>
</g>
<g opacity="0.5">
<path opacity="0.5" d="M278.078 111.943C278.078 111.943 270.906 124.182 280.486 127.198C280.894 127.504 281.389 127.673 281.898 127.679C282.408 127.686 282.907 127.53 283.323 127.235C283.323 127.235 282.681 126.879 283.549 125.72C283.855 125.306 284.111 124.856 284.312 124.382C284.584 123.741 284.641 123.029 284.474 122.352C284.474 122.352 284.816 118.058 279.728 113.722C279.728 113.722 278.984 112.059 278.642 111.934L278.466 114.523C278.466 114.523 280.37 114.579 281.35 115.802C281.35 115.802 278.577 114.468 278.425 114.908C278.392 115 278.392 116.298 278.392 116.298C278.392 116.298 281.696 116.409 283.157 118.345C283.157 118.345 280.051 116.307 278.383 116.789L278.499 118.734C278.499 118.734 281.997 118.679 283.743 120.819C283.743 120.819 280.421 118.804 278.55 119.156L278.915 121.055C278.915 121.055 282.334 121.055 283.776 122.862C283.776 122.862 279.7 120.916 279.03 121.472C279.03 121.472 279.492 123.191 279.811 123.594C279.811 123.594 282.26 123.659 283.004 124.775C283.004 124.775 280.144 123.765 279.987 124.053C279.987 124.053 281.156 126.147 282.297 126.888C281.202 126.257 280.291 125.35 279.654 124.256C279.433 125.003 279.433 125.798 279.654 126.545C279.654 126.545 278.494 125.72 279.363 123.742C279.363 123.742 278.513 122.079 278.563 121.773C278.563 121.773 277.436 123.603 277.357 125.016C277.357 125.016 276.692 123.39 278.452 121.264L278.041 119.364C278.041 119.364 276.419 121.709 276.258 122.969C276.258 122.969 275.832 121.204 277.977 118.878L277.847 116.974C277.847 116.974 276.294 118.883 275.814 120.245C275.814 120.245 275.772 118.526 277.829 116.427L277.893 115.139C277.893 115.139 276.784 116.557 276.507 116.992C276.23 117.428 276.087 117.386 276.087 117.386C276.434 116.306 277.074 115.344 277.935 114.607C277.935 114.607 278.235 111.999 278.078 111.943Z" fill="#FF7A00"/>
</g>
<g opacity="0.5">
<path opacity="0.5" d="M123.573 19.2486C123.573 19.2486 96.8639 38.7057 114.544 54.1184C114.544 54.1184 116.544 57.7689 120.578 56.847C120.578 56.847 119.534 55.485 122.468 53.8173C123.509 53.2182 124.473 52.4965 125.343 51.6678C126.518 50.5577 127.302 49.0942 127.575 47.4984C127.575 47.4984 132.297 38.6315 125.454 24.6132C125.454 24.6132 125.412 20.3558 124.788 19.7675L122.016 25.1506C122.016 25.1506 126.031 27.0453 126.997 30.58C126.997 30.58 122.279 25.1181 121.563 25.9474C121.419 26.1095 120.213 28.8659 120.213 28.8659C120.213 28.8659 127.186 32.1922 128.508 37.6957C128.508 37.6957 123.758 30.4318 119.728 29.9036L118.162 34.1703C118.162 34.1703 125.698 37.3251 127.445 43.5329C127.445 43.5329 122.214 36.1206 117.88 35.1246L116.9 39.5303C116.9 39.5303 124.192 42.7499 125.611 47.9246C125.611 47.9246 118.679 39.9657 116.743 40.5541C116.743 40.5541 116.087 44.6493 116.433 45.8214C116.433 45.8214 121.618 48.2535 122.173 51.3342C122.173 51.3342 116.993 46.507 116.383 46.9703C116.383 46.9703 116.946 52.5294 118.721 55.2024C118.721 55.2024 115.814 51.4547 115.519 47.1046C115.519 47.1046 113.536 49.4209 113.425 52.0198C113.425 52.0198 111.706 49.1708 115.398 45.7519C115.398 45.7519 115.135 41.3972 115.528 40.795C115.528 40.795 111.406 43.6533 109.923 46.6182C109.923 46.6182 110.01 42.5229 115.745 39.6183L116.632 35.1756C116.632 35.1756 110.99 38.664 109.47 41.198C109.47 41.198 110.204 37.0286 116.946 34.0545L118.444 29.862C118.444 29.862 113.361 32.4979 111.05 34.9578C111.05 34.9578 112.561 31.2517 118.906 28.6714L120.232 25.9844C120.232 25.9844 116.535 27.9765 115.542 28.6436C114.548 29.3107 114.271 29.1068 114.271 29.1068C116.002 27.1143 118.251 25.6435 120.768 24.8587C120.768 24.8587 123.882 19.4663 123.573 19.2486Z" fill="#FF7A00"/>
</g>
<g opacity="0.5">
<path opacity="0.5" d="M97.6262 83.4522C97.6262 83.4522 63.0756 68.8872 58.547 95.1496C58.547 95.1496 56.1857 99.2449 59.4712 102.627C59.4712 102.627 60.1782 100.811 63.5192 102.687C64.7108 103.348 65.9766 103.864 67.2898 104.225C69.0634 104.715 70.9479 104.615 72.6594 103.938C72.6594 103.938 84.0176 103.322 93.5783 88.4184C93.5783 88.4184 97.6724 85.8797 97.8804 84.9254L91.0275 85.3887C91.0275 85.3887 91.5543 90.4151 88.7171 93.4309C88.7171 93.4309 91.2355 85.6296 90.0248 85.4118C89.7799 85.3655 86.4066 85.8102 86.4066 85.8102C86.4066 85.8102 87.28 94.552 82.7099 99.0735C82.7099 99.0735 86.9519 90.1834 85.1035 85.9678L80.0528 86.9452C80.0528 86.9452 81.4391 96.141 76.4393 101.487C76.4393 101.487 80.5473 92.0365 78.9623 87.2371L74.1196 88.8678C74.1196 88.8678 75.2887 97.8597 71.1067 102.302C71.1067 102.302 74.7573 90.9015 73.0383 89.331C73.0383 89.331 68.6854 91.1007 67.7519 92.1106C67.7519 92.1106 68.4451 98.5963 65.7834 100.936C65.7834 100.936 67.4192 93.0603 66.6106 92.736C66.6106 92.736 61.5506 96.5533 60.0073 99.8471C60.0073 99.8471 61.9342 94.8161 65.9729 91.9716C65.9729 91.9716 62.5811 91.3926 59.9657 92.8194C59.9657 92.8194 61.717 89.4793 67.1974 91.0636C67.1974 91.0636 71.2592 88.2424 72.0725 88.2841C72.0725 88.2841 66.8878 85.9678 63.1402 86.255C63.1402 86.255 67.1558 83.9387 73.3386 87.8069L78.1583 86.0558C78.1583 86.0558 71.4625 82.6137 68.1031 82.6276C68.1031 82.6276 72.5669 80.895 79.4152 85.713L84.3595 84.6891C84.3595 84.6891 78.8144 81.2842 75.0715 80.4966C75.0715 80.4966 79.5584 79.7832 85.7828 84.4575L89.1653 84.1749C89.1653 84.1749 85.0712 81.7567 83.8328 81.1683C82.5944 80.58 82.6498 80.2001 82.6498 80.2001C85.5973 80.7132 88.3444 82.0381 90.5839 84.0267C90.5839 84.0267 97.5939 83.8831 97.6262 83.4522Z" fill="#FF7A00"/>
</g>
<g opacity="0.5">
<path opacity="0.5" d="M76.9385 46.6784C76.9385 46.6784 64.6884 18.2943 47.0781 31.312C47.0781 31.312 43.349 32.396 43.3813 36.2689C43.3813 36.2689 44.8323 35.5925 45.7472 38.6176C46.0884 39.6892 46.5536 40.7169 47.1335 41.6798C47.9076 42.9853 49.0855 44.0019 50.4883 44.5752C50.4883 44.5752 57.586 50.6996 71.7446 47.3038C71.7446 47.3038 75.6215 48.1331 76.2869 47.6883L71.9571 44.0425C71.9571 44.0425 69.4156 47.3316 66.0054 47.4891C66.0054 47.4891 71.934 44.2926 71.3379 43.4726C71.2178 43.3059 68.9628 41.6474 68.9628 41.6474C68.9628 41.6474 64.5128 47.3363 59.2588 47.4243C59.2588 47.4243 66.8325 44.5613 68.1264 41.0081L64.5683 38.6918C64.5683 38.6918 60.0998 44.9597 54.0972 45.2886C54.0972 45.2886 61.9066 42.0226 63.6949 38.2609L59.8919 36.4866C59.8919 36.4866 55.4743 42.5091 50.4791 42.7361C50.4791 42.7361 59.1248 38.0478 58.9908 36.1346C58.9908 36.1346 55.4003 34.6984 54.2636 34.7818C54.2636 34.7818 50.9966 39.0207 48.0808 38.9002C48.0808 38.9002 53.5289 35.1524 53.2285 34.4992C53.2285 34.4992 48.0531 33.8785 45.2667 34.9625C45.2667 34.9625 49.2684 33.0724 53.284 33.6932C53.284 33.6932 51.5973 31.4093 49.2407 30.7746C49.2407 30.7746 52.1842 29.7878 54.5362 33.8553C54.5362 33.8553 58.5518 34.5039 59.0185 34.9857C59.0185 34.9857 57.2626 30.6356 54.8597 28.676C54.8597 28.676 58.5564 29.6025 60.0398 35.4258L63.8982 37.1445C63.8982 37.1445 61.8789 31.2703 59.8734 29.3663C59.8734 29.3663 63.5101 30.8858 64.8409 37.6587L68.3482 39.8777C68.3482 39.8777 66.9896 34.6892 65.2198 32.081C65.2198 32.081 68.2881 34.2213 69.3324 40.5541L71.5043 42.3145C71.5043 42.3145 70.4415 38.5435 70.0395 37.4873C69.6374 36.431 69.8916 36.2365 69.8916 36.2365C71.3491 38.2241 72.2274 40.5785 72.4285 43.0372C72.4285 43.0372 76.6797 46.924 76.9385 46.6784Z" fill="#FF7A00"/>
</g>
<g opacity="0.5">
<path opacity="0.5" d="M315.693 61.4472C315.693 61.4472 312.804 47.5493 303.678 51.7697C303.17 51.8184 302.691 52.0271 302.309 52.3658C301.927 52.7046 301.663 53.156 301.552 53.6552C301.552 53.6552 302.269 53.4837 302.403 54.9291C302.453 55.4421 302.564 55.9473 302.731 56.4347C302.962 57.0921 303.397 57.6574 303.974 58.0469C303.974 58.0469 306.599 61.4565 313.267 61.2434C313.267 61.2434 314.935 61.9754 315.277 61.8364L313.664 59.798C313.664 59.798 312.218 61.0396 310.674 60.794C310.674 60.794 313.632 59.9092 313.447 59.483C313.405 59.395 312.546 58.4407 312.546 58.4407C312.546 58.4407 310.023 60.5856 307.643 60.1362C307.643 60.1362 311.307 59.5525 312.222 58.0747L310.836 56.7081C310.836 56.7081 308.276 59.1078 305.55 58.6955C305.55 58.6955 309.362 57.9542 310.512 56.4301L308.969 55.2719C308.969 55.2719 306.428 57.5605 304.159 57.2037C304.159 57.2037 308.479 55.8973 308.595 55.0264C308.595 55.0264 307.116 54.0489 306.594 53.9794C306.594 53.9794 304.746 55.5823 303.438 55.258C303.438 55.258 306.21 54.0814 306.16 53.7571C306.16 53.7571 303.891 52.9973 302.537 53.2243C303.77 52.9562 305.053 53.0153 306.257 53.3957C305.917 52.6935 305.379 52.107 304.709 51.7094C304.709 51.7094 306.123 51.538 306.807 53.5625C306.807 53.5625 308.549 54.225 308.715 54.489C308.715 54.489 308.327 52.3719 307.43 51.2462C307.43 51.2462 309.011 52.0013 309.135 54.7623L310.711 55.8927C310.711 55.8927 310.346 53.0668 309.621 52.0198C309.621 52.0198 311.113 53.0436 311.085 56.1892L312.472 57.5141C312.472 57.5141 312.342 55.0542 311.788 53.72C311.788 53.72 312.966 54.9662 312.851 57.8894L313.664 58.8854C313.664 58.8854 313.539 57.0926 313.456 56.5691C313.373 56.0456 313.502 55.99 313.502 55.99C313.975 57.0206 314.152 58.1625 314.015 59.2884C314.015 59.2884 315.554 61.5306 315.693 61.4472Z" fill="#FF7A00"/>
</g>
<g opacity="0.5">
<path opacity="0.5" d="M265.962 319.077C265.962 319.077 263.079 305.179 253.948 309.4C253.439 309.448 252.96 309.657 252.577 309.995C252.194 310.334 251.928 310.786 251.817 311.285C251.817 311.285 252.534 311.114 252.668 312.559C252.718 313.073 252.829 313.578 253 314.065C253.23 314.721 253.664 315.287 254.239 315.677C254.239 315.677 256.863 319.086 263.536 318.873C263.536 318.873 265.204 319.605 265.542 319.466L263.933 317.428C263.933 317.428 262.487 318.669 260.939 318.424C260.939 318.424 263.897 317.539 263.712 317.113C263.675 317.025 262.811 316.071 262.811 316.071C262.811 316.071 260.288 318.215 257.908 317.766C257.908 317.766 261.577 317.182 262.487 315.705L261.101 314.315C261.101 314.315 258.569 316.724 255.833 316.298C255.833 316.298 259.645 315.556 260.796 314.032L259.252 312.874C259.252 312.874 256.716 315.163 254.447 314.806C254.447 314.806 258.767 313.504 258.883 312.629C258.883 312.629 257.399 311.651 256.882 311.582C256.882 311.582 255.034 313.184 253.721 312.86C253.721 312.86 256.494 311.684 256.443 311.359C256.443 311.359 254.174 310.599 252.82 310.826C254.055 310.558 255.339 310.617 256.545 310.998C256.203 310.297 255.665 309.711 254.997 309.312C254.997 309.312 256.406 309.14 257.09 311.165C257.09 311.165 258.837 311.827 259.003 312.091C259.003 312.091 258.615 309.974 257.718 308.848C257.718 308.848 259.299 309.603 259.419 312.364L260.999 313.495C260.999 313.495 260.63 310.669 259.904 309.622C259.904 309.622 261.401 310.646 261.373 313.791L262.76 315.116C262.76 315.116 262.63 312.656 262.071 311.322C262.071 311.322 263.254 312.568 263.139 315.492L263.952 316.488C263.952 316.488 263.823 314.695 263.739 314.171C263.656 313.648 263.786 313.597 263.786 313.597C264.258 314.626 264.436 315.766 264.299 316.891C264.299 316.891 265.833 319.147 265.962 319.077Z" fill="#FF7A00"/>
</g>
</g>
<defs>
<linearGradient id="paint0_linear" x1="25178.1" y1="128577" x2="25178.1" y2="56677.2" gradientUnits="userSpaceOnUse">
<stop stop-color="#808080" stop-opacity="0.25"/>
<stop offset="0.54" stop-color="#808080" stop-opacity="0.12"/>
<stop offset="1" stop-color="#808080" stop-opacity="0.1"/>
</linearGradient>
<clipPath id="clip0">
<rect width="531" height="350" fill="white"/>
</clipPath>
</defs>
</svg>
